<?xml version="1.0" encoding="utf-8"?>
<!-- Generator: Adobe Illustrator 19.2.1, SVG Export Plug-In . SVG Version: 6.00 Build 0)  -->
<svg version="1.1" id="Warstwa_1" xmlns="http://www.w3.org/2000/svg" xmlns:xlink="http://www.w3.org/1999/xlink" x="0px" y="0px"
	 viewBox="0 0 250 250" style="enable-background:new 0 0 250 250;" xml:space="preserve">
<style type="text/css">
	.st0{fill:#E64C3C;}
</style>
<path id="XMLID_15_" class="st0" d="M168.8,0.9c-9.6,1.6-20.1,8.1-31.3,19.3c-4.7,4.7-9.8,10.6-15,17.7
	c-5.3,7.1-10.2,14.2-14.9,21.5s-8.8,14.1-12.3,20.5c-3.6,6.4-5.7,10.6-6.4,12.6c-1.7,5-2,12.2-0.7,21.5c-5-1-10.9-1.9-17.7-2.5
	c-9.3-0.8-20-1.4-32-1.8l-7.6,7.6c11.7,0.7,20,1.4,25.1,2.2c5,0.7,8.6,2.2,10.6,4.2c1.8,1.8,2.7,3.9,2.8,6.4
	c0.1,2.5-0.8,4.6-2.7,6.6c-3.3,3.3-7.5,5.3-12.8,6c-5.2,0.7-12.6,1.4-22.2,1.9c-9.5,0.5-15,1.4-16.4,2.8c-2.1,2.1-4.1,5.6-6,10.5
	c-2,5-2.1,8.2-0.4,9.8c0.9,0.9,4.1,1.5,9.7,2s12.3,0.9,20,1.2c7.7,0.3,18.4,0.8,31.9,1.4s29.5,1.5,48,2.6c-15,2.1-27.6,4.1-37.7,6
	s-18.3,3.9-24.5,5.8c-6.2,2-10.1,3.7-11.7,5.3c-2.4,2.4-3.6,5-3.8,8s0.7,5.6,2.9,7.7c3.5,3.5,9.7,5.8,18.6,6.9
	c8.9,1.1,19.2,1.7,31,1.7s22.6,0,32.5-0.1s15.5,0.5,16.7,1.7c1.5,1.5,1.3,3.2-0.6,5.1c-1.4,1.4-4.5,2.6-9.5,3.7
	c-5,1.1-9.5,1.6-13.7,1.5c-7.6-0.4-14.4-0.1-20.5,0.7c-6,0.8-9.8,2-11.3,3.5c-1.4,1.4-1.8,3.3-1.2,5.5s1.9,4.4,4,6.5
	c3.4,3.4,8,5.1,14,5.1c6,0.1,14.8-1,26.5-3.1c7.8-1.7,14.1-3.4,18.8-5.2c4.7-1.7,9.2-4.8,13.6-9.2c6.1-6.1,10.3-12.5,12.6-19.2
	c0.8-2.4,1.3-4.5,1.6-6.3c2.5,0.3,5.1,0.1,7.9-0.4c8.4-1.7,17.1-7,26.1-16.1c5.4-5.4,10.5-12.3,15.3-20.7s8.7-17.4,11.8-26.8
	c3.1-9.5,4.5-18.2,4.3-26.2s-2.4-14.1-6.7-18.4c-7-7-17.1-7.8-30.4-2.3c-3.7,1.6-7.9,3.7-12.4,6.2c-4.5,2.6-9.2,5.5-14.2,8.9
	s-10.3,7.4-16.1,12.2l-0.8-9.9c10.5-13.2,18.8-25.5,25-36.8S196.9,54.8,199,46s2.5-16.4,1.3-22.8c-1.2-6.4-3.9-11.6-8-15.7
	C186.3,1.5,178.5-0.7,168.8,0.9z M188.5,116.2c7.2-4.7,13.1-7.6,17.7-8.9c4.6-1.2,8.1-0.6,10.7,2c3,3,3.9,7.9,2.9,14.7
	c-1,6.9-3.5,14.1-7.5,21.7s-8.5,13.9-13.6,19c-5.5,5.5-10.9,8.6-16,9.3c-5.2,0.7-9.2-0.4-12-3.2c-1.8-1.8-3-4.1-3.7-6.9
	s-1.3-6.8-1.7-12c-0.4-5.2-0.9-11.2-1.5-18C173,126.8,181.3,120.8,188.5,116.2z M191.8,44c-0.9,6.3-4,13.9-9.2,23
	c-5.2,9-12.6,19.8-22.2,32.5c-0.5-8.7-1-16.3-1.4-22.6c-0.4-6.4-0.7-11-0.9-13.9c-0.2-2.9-0.5-4.5-0.8-4.9c-0.3-0.3-0.7-0.2-1.3,0.4
	c-0.6,0.6-1.1,1.1-1.5,1.6c-5.3,6.5-8.5,14.3-9.6,23.4c-1.1,9.1-0.9,20.9,0.5,35.3c-5.1,6.5-9.3,11.9-12.5,16.1s-5.3,7.1-6.3,8.7
	s-1.5,3.2-1.6,4.7s0.6,2.9,2,4.3c2.2,2.2,4.9,2.9,8.1,2.1c3.2-0.8,7.4-3.5,12.5-8.1c1.7,14.6,3.7,26.2,6.1,34.7c2,7.3,4.7,13,7.9,17
	c-2.2,0.3-4.7,0.8-7.6,1.3c-7.2,1.3-13.3,2.1-18.3,2.4c-17.9,0.9-29.8,1.4-35.7,1.4s-9.7-0.8-11.2-2.4c-1.4-1.4-1.4-2.9,0-4.3
	c1.2-1.2,2.3-1.9,3.3-2c13.7-3.4,24.7-6.5,33-9.2s13.5-5.2,15.7-7.3c5.3-5.3,6.1-9.8,2.4-13.5c-3.4-3.4-9.3-4.9-17.7-4.5
	c-4.4,0.3-10.5,0.7-18.1,1.2c-7.7,0.5-17,0.7-28.2,0.6c-11.1-0.1-23.3-0.9-36.5-2.2c6.4-1.6,13.5-3.3,21.2-5.2s14.2-3.7,19.4-5.3
	c5.2-1.6,9.5-3.3,12.8-4.9s6.2-3.7,8.7-6.1c1.9-1.9,3.1-4,3.7-6.2c2.3-3.6,4.9-8.3,8-13.9c6.2-11.6,8.8-17.9,7.9-18.8
	c-0.7-0.7-3.1-0.1-7,1.7c-0.5,0.2-0.9,0.2-1.1,0c-0.6-0.6,0.3-3.3,2.6-8.2s5.2-10.2,8.7-15.9c3.5-5.7,7.6-11.9,12.4-18.4
	c4.8-6.6,9.4-12,13.7-16.4c7.9-7.9,14.7-13,20.4-15c5.6-2.1,10.4-1.1,14.4,2.8C191.6,32.9,192.7,37.7,191.8,44z"/>
</svg>
